/* XPM */
static char * close_prelight_xpm[] = {
"20 24 72 1",
" 	c #9A6A2C",
".	c #FFDBAC",
"+	c #FFCA87",
"@	c #FFBE6B",
"#	c #FEBB65",
"$	c #FFC985",
"%	c #FFBD68",
"&	c #F7AF52",
"*	c #AE742B",
"=	c #F6AD50",
"-	c #FFC172",
";	c #FCB861",
">	c #FFD7A5",
",	c #F8BD73",
"'	c #FCB963",
")	c #FFCE8F",
"!	c #FFD6A1",
"~	c #FFCB89",
"{	c #FCBA65",
"]	c #FFD59F",
"^	c #D88A26",
"/	c #D98E2C",
"(	c #F1BB76",
"_	c #E2A353",
":	c #FFE1BA",
"<	c #FDBB67",
"[	c #FFD49D",
"}	c #FADEBA",
"|	c #FAE2C4",
"1	c #DB9236",
"2	c #F1BB74",
"3	c #FEECD5",
"4	c #FDBC69",
"5	c #FFD29A",
"6	c #DA8F2E",
"7	c #FFEFDA",
"8	c #FDBD6B",
"9	c #FFD197",
"0	c #F1B970",
"a	c #FAE3C6",
"b	c #FBE3C5",
"c	c #FDBE6D",
"d	c #FFD195",
"e	c #F1B96F",
"f	c #FDBF6F",
"g	c #FFCA88",
"h	c #F1B467",
"i	c #FEC072",
"j	c #FEC985",
"k	c #F1B365",
"l	c #FEC174",
"m	c #FDC883",
"n	c #FEC276",
"o	c #FDC681",
"p	c #F9DBB6",
"q	c #F0B162",
"r	c #FEC378",
"s	c #FCC57F",
"t	c #F0B161",
"u	c #FDD8A9",
"v	c #FFC47A",
"w	c #FBC47D",
"x	c #FFC57C",
"y	c #FAC27A",
"z	c #FFC06F",
"A	c #FFC376",
"B	c #F2B567",
"C	c #F9C177",
"D	c #FBB65E",
"E	c #FBB55D",
"F	c #FFC881",
"G	c #FAB45B",
"                    ",
"....................",
"++@##############@++",
"$%&**************&%$",
"%=*-............-*=%",
";*@>>>>>>>>>>>>>>,*;",
"'*)!!!!!!!!!!!!!!~*'",
"{*)]]]^/(]](/_:]]~*{",
"<*)[[^}|1221|3_[[~*<",
"4*)556|7|11|7|655~*4",
"8*)9901|7ab7|1099~*8",
"c*)ddde1a77b1eddd~*c",
"f*)gggh1b77a1hggg~*f",
"i*)jjk1|7ba7|1kjj~*i",
"l*)mm6|7|11|7|6mm~*l",
"n*)oo^p|1qq1|3_oo~*n",
"r*)sss^/tsst/_uss~*r",
"v*)wwwwwwwwwwwwww~*v",
"x*@yyyyyyyyyyyyyy,*x",
"zA*BCCCCCCCCCCCCB*Az",
"D@-**************-@D",
"EEAFFFFFFFFFFFFFFAEE",
"GGGGGGGGGGGGGGGGGGGG",
"^^^^^^^^^^^^^^^^^^^^"};
