/* XPM */
static char * close_inactive_xpm[] = {
"20 24 80 1",
" 	c #8F8173",
".	c #F9F7F5",
"+	c #EDE8E4",
"@	c #E2DBD4",
"#	c #DED6CF",
"$	c #ECE7E2",
"%	c #E0D9D1",
"&	c #D6CDC4",
"*	c #9B8D7F",
"=	c #D4CAC1",
"-	c #F3F0ED",
";	c #FFFFFF",
">	c #DFD9D1",
",	c #EFEBE7",
"'	c #E6E0DA",
")	c #E0D9D2",
"!	c #FFFEFE",
"~	c #E1DAD3",
"{	c #FEFEFE",
"]	c #F9F9F9",
"^	c #DBDBDB",
"/	c #BEBDBD",
"(	c #E1DBD4",
"_	c #FEFEFD",
":	c #999997",
"<	c #868482",
"[	c #F3F3F1",
"}	c #7A7876",
"|	c #DBDBDA",
"1	c #E2DBD5",
"2	c #FEFDFD",
"3	c #F8F6F6",
"4	c #747271",
"5	c #F3F2F1",
"6	c #E2DCD5",
"7	c #FDFDFC",
"8	c #F2F2F1",
"9	c #858482",
"0	c #848381",
"a	c #858381",
"b	c #E3DDD6",
"c	c #FDFCFC",
"d	c #F2F1F1",
"e	c #E3DDD7",
"f	c #F7F6F4",
"g	c #ECEBE9",
"h	c #848280",
"i	c #E4DED8",
"j	c #F6F3F1",
"k	c #EBE8E6",
"l	c #838180",
"m	c #E5DFD8",
"n	c #F4F1EE",
"o	c #EEEBE8",
"p	c #E9E7E4",
"q	c #E5DFD9",
"r	c #F2EEEB",
"s	c #969492",
"t	c #858280",
"u	c #E8E4E1",
"v	c #797776",
"w	c #D2CFCC",
"x	c #F0ECE8",
"y	c #ECE8E4",
"z	c #D1CECA",
"A	c #B7B4B1",
"B	c #E6E0DB",
"C	c #EEEAE6",
"D	c #E7E1DC",
"E	c #ECE7E3",
"F	c #E3DCD5",
"G	c #DAD1C9",
"H	c #EAE4DF",
"I	c #DBD3CB",
"J	c #E4DDD7",
"K	c #DAD2CA",
"L	c #E5DED8",
"M	c #E8E2DC",
"N	c #DAD2C9",
"O	c #A6998C",
"                    ",
"....................",
"++@##############@++",
"$%&**************&%$",
"%=*-;;;;;;;;;;;;-*=%",
">*,;;;;;;;;;;;;;;'*>",
")*;!!!!!!!!!!!!!!.*)",
"~*;{{{{]{{{{]^/{{.*~",
"(*;___:<[__[<}|__.*(",
"1*;223<4<55<4<322.*1",
"6*;7778940a498777.*6",
"b*;ccccd044adcccc.*b",
"e*;ffffgh44hgffff.*e",
"i*;jjjka4lh4akjjj.*i",
"m*;nnoa4appa4aonn.*m",
"q*;rrrsturrutvwrr.*q",
"'*;xxxxyxxxxyzAxx.*'",
"B*;CCCCCCCCCCCCCC.*B",
"D*,EEEEEEEEEEEEEE'*D",
"F'*GHHHHHHHHHHHHG*'F",
"I@J**************J@I",
"KKLMMMMMMMMMMMMMMLKK",
"NNNNNNNNNNNNNNNNNNNN",
"OOOOOOOOOOOOOOOOOOOO"};
