/* XPM */
static char * close_active_xpm[] = {
"20 24 69 1",
" 	c #9A6A2C",
".	c #FFDBAC",
"+	c #FFCA87",
"@	c #FFBE6B",
"#	c #FEBB65",
"$	c #FFC985",
"%	c #FFBD68",
"&	c #F7AF52",
"*	c #AE742B",
"=	c #F6AD50",
"-	c #FFC172",
";	c #FCB861",
">	c #FFCD8E",
",	c #FCB963",
"'	c #FFCE8F",
")	c #FFCC8A",
"!	c #FCBA65",
"~	c #D88A26",
"{	c #D98E2C",
"]	c #F1B466",
"^	c #E2A353",
"/	c #FFDBAD",
"(	c #FDBB67",
"_	c #FFC984",
":	c #FADCB6",
"<	c #FAE2C4",
"[	c #DB9236",
"}	c #F1B364",
"|	c #FEECD5",
"1	c #FDBC69",
"2	c #FFC781",
"3	c #DA8F2E",
"4	c #FFEFDA",
"5	c #FDBD6B",
"6	c #FFC67D",
"7	c #F1B15F",
"8	c #FAE3C6",
"9	c #FBE3C5",
"0	c #FDBE6D",
"a	c #FFC57A",
"b	c #F1B15D",
"c	c #FDBF6F",
"d	c #FFBD6A",
"e	c #F1AB53",
"f	c #FEC072",
"g	c #FEBB67",
"h	c #F1AA51",
"i	c #FEC174",
"j	c #FDBA64",
"k	c #FEC276",
"l	c #F9DAB1",
"m	c #F0A84D",
"n	c #FEECD4",
"o	c #FEC378",
"p	c #FBB65F",
"q	c #EFA74C",
"r	c #FDD098",
"s	c #FFC47A",
"t	c #FAB55C",
"u	c #FFC57C",
"v	c #F9B359",
"w	c #FFC06F",
"x	c #FFC376",
"y	c #EFA341",
"z	c #F8B155",
"A	c #FBB65E",
"B	c #FBB55D",
"C	c #FFC881",
"D	c #FAB45B",
"                    ",
"....................",
"++@##############@++",
"$%&**************&%$",
"%=*-............-*=%",
";*@>>>>>>>>>>>>>>=*;",
",*'))))))))))))))@*,",
"!*'+++~{]++]{^/++@*!",
"(*'__~:<[}}[<|^__@*(",
"1*'223<4<[[<4<322@*1",
"5*'667[<4894<[766@*5",
"0*'aaab[8449[baaa@*0",
"c*'ddde[9448[eddd@*c",
"f*'ggh[<4984<[hgg@*f",
"i*'jj3<4<[[<4<3jj@*i",
"k*';;~l<[mm[<n^;;@*k",
"o*'ppp~{qppq{^rpp@*o",
"s*'tttttttttttttt@*s",
"u*@vvvvvvvvvvvvvv=*u",
"wx*yzzzzzzzzzzzzy*xw",
"A@-**************-@A",
"BBxCCCCCCCCCCCCCCxBB",
"DDDDDDDDDDDDDDDDDDDD",
"~~~~~~~~~~~~~~~~~~~~"};
