/* XPM */
static char * hide_prelight_xpm[] = {
"20 24 52 1",
" 	c #9A6A2C",
".	c #FFDBAC",
"+	c #FFCA87",
"@	c #FFBE6B",
"#	c #FEBB65",
"$	c #FFC985",
"%	c #FFBD68",
"&	c #F7AF52",
"*	c #AE742B",
"=	c #F6AD50",
"-	c #FFC172",
";	c #FCB861",
">	c #FFD7A5",
",	c #F8BD73",
"'	c #FCB963",
")	c #FFCE8F",
"!	c #FFD6A1",
"~	c #FFCB89",
"{	c #FCBA65",
"]	c #FFD59F",
"^	c #FDBB67",
"/	c #FFD49D",
"(	c #FDBC69",
"_	c #FFD29A",
":	c #FDBD6B",
"<	c #FFD197",
"[	c #FDBE6D",
"}	c #FFD195",
"|	c #FDBF6F",
"1	c #FFCA88",
"2	c #FEC072",
"3	c #FEC985",
"4	c #D88A26",
"5	c #FEC174",
"6	c #FDC883",
"7	c #FFEFDA",
"8	c #FEC276",
"9	c #FDC681",
"0	c #FEC378",
"a	c #FCC57F",
"b	c #FFC47A",
"c	c #FBC47D",
"d	c #FFC57C",
"e	c #FAC27A",
"f	c #FFC06F",
"g	c #FFC376",
"h	c #F2B567",
"i	c #F9C177",
"j	c #FBB65E",
"k	c #FBB55D",
"l	c #FFC881",
"m	c #FAB45B",
"                    ",
"....................",
"++@##############@++",
"$%&**************&%$",
"%=*-............-*=%",
";*@>>>>>>>>>>>>>>,*;",
"'*)!!!!!!!!!!!!!!~*'",
"{*)]]]]]]]]]]]]]]~*{",
"^*)//////////////~*^",
"(*)______________~*(",
":*)<<<<<<<<<<<<<<~*:",
"[*)}}}}}}}}}}}}}}~*[",
"|*)11111111111111~*|",
"2*)33444444444433~*2",
"5*)66477777777466~*5",
"8*)99477777777499~*8",
"0*)aa4444444444aa~*0",
"b*)cccccccccccccc~*b",
"d*@eeeeeeeeeeeeee,*d",
"fg*hiiiiiiiiiiiih*gf",
"j@-**************-@j",
"kkgllllllllllllllgkk",
"mmmmmmmmmmmmmmmmmmmm",
"44444444444444444444"};
