/* XPM */
static char * maximize_toggled_prelight_xpm[] = {
"20 24 53 1",
" 	c #9A6A2C",
".	c #FFCA87",
"+	c #FFC985",
"@	c #FFBE6B",
"#	c #FEBB65",
"$	c #FFC883",
"%	c #FFBD68",
"&	c #F7AF52",
"*	c #AE742B",
"=	c #F6AD50",
"-	c #FFC172",
";	c #FFDBAC",
">	c #FCB861",
",	c #FFD7A5",
"'	c #F8BD73",
")	c #FCB963",
"!	c #FFCE8F",
"~	c #FFD6A1",
"{	c #FFCB89",
"]	c #FCBA65",
"^	c #FFD59F",
"/	c #FDBB67",
"(	c #FFD49D",
"_	c #D88A26",
":	c #FDBC69",
"<	c #FFD29A",
"[	c #FFEFDA",
"}	c #FDBD6B",
"|	c #FFD197",
"1	c #FDBE6D",
"2	c #FFD195",
"3	c #FDBF6F",
"4	c #FFCA88",
"5	c #FEC072",
"6	c #FEC985",
"7	c #FEC174",
"8	c #FDC883",
"9	c #FEC276",
"0	c #FDC681",
"a	c #FEC378",
"b	c #FCC57F",
"c	c #FFC47A",
"d	c #FBC47D",
"e	c #FFC57C",
"f	c #FAC27A",
"g	c #FFC06F",
"h	c #FFC376",
"i	c #F2B567",
"j	c #F9C177",
"k	c #FBB65E",
"l	c #FBB55D",
"m	c #FFC881",
"n	c #FAB45B",
"                    ",
"....................",
"++@##############@++",
"$%&**************&%$",
"%=*-;;;;;;;;;;;;-*=%",
">*@,,,,,,,,,,,,,,'*>",
")*!~~~~~~~~~~~~~~{*)",
"]*!^^^^^^^^^^^^^^{*]",
"/*!(((________((({*/",
":*!<<<_[[[[[[_<<<{*:",
"}*!|||_[[[[[[_|||{*}",
"1*!222_[____[_222{*1",
"3*!444_[_44_[_444{*3",
"5*!666_[____[_666{*5",
"7*!888_[[[[[[_888{*7",
"9*!000________000{*9",
"a*!bbbbbbbbbbbbbb{*a",
"c*!dddddddddddddd{*c",
"e*@ffffffffffffff'*e",
"gh*ijjjjjjjjjjjji*hg",
"k@-**************-@k",
"llhmmmmmmmmmmmmmmhll",
"nnnnnnnnnnnnnnnnnnnn",
"____________________"};
