/* XPM */
static char * maximize_toggled_active_xpm[] = {
"20 24 49 1",
" 	c #9A6A2C",
".	c #FFCA87",
"+	c #FFC985",
"@	c #FFBE6B",
"#	c #FEBB65",
"$	c #FFC883",
"%	c #FFBD68",
"&	c #F7AF52",
"*	c #AE742B",
"=	c #F6AD50",
"-	c #FFC172",
";	c #FFDBAC",
">	c #FCB861",
",	c #FFCD8E",
"'	c #FCB963",
")	c #FFCE8F",
"!	c #FFCC8A",
"~	c #FCBA65",
"{	c #FDBB67",
"]	c #FFC984",
"^	c #D88A26",
"/	c #FDBC69",
"(	c #FFC781",
"_	c #FFEFDA",
":	c #FDBD6B",
"<	c #FFC67D",
"[	c #FDBE6D",
"}	c #FFC57A",
"|	c #FDBF6F",
"1	c #FFBD6A",
"2	c #FEC072",
"3	c #FEBB67",
"4	c #FEC174",
"5	c #FDBA64",
"6	c #FEC276",
"7	c #FEC378",
"8	c #FBB65F",
"9	c #FFC47A",
"0	c #FAB55C",
"a	c #FFC57C",
"b	c #F9B359",
"c	c #FFC06F",
"d	c #FFC376",
"e	c #EFA341",
"f	c #F8B155",
"g	c #FBB65E",
"h	c #FBB55D",
"i	c #FFC881",
"j	c #FAB45B",
"                    ",
"....................",
"++@##############@++",
"$%&**************&%$",
"%=*-;;;;;;;;;;;;-*=%",
">*@,,,,,,,,,,,,,,=*>",
"'*)!!!!!!!!!!!!!!@*'",
"~*)..............@*~",
"{*)]]]^^^^^^^^]]]@*{",
"/*)(((^______^(((@*/",
":*)<<<^______^<<<@*:",
"[*)}}}^_^^^^_^}}}@*[",
"|*)111^_^11^_^111@*|",
"2*)333^_^^^^_^333@*2",
"4*)555^______^555@*4",
"6*)>>>^^^^^^^^>>>@*6",
"7*)88888888888888@*7",
"9*)00000000000000@*9",
"a*@bbbbbbbbbbbbbb=*a",
"cd*effffffffffffe*dc",
"g@-**************-@g",
"hhdiiiiiiiiiiiiiidhh",
"jjjjjjjjjjjjjjjjjjjj",
"^^^^^^^^^^^^^^^^^^^^"};
