/* XPM */
static char * top_right_active_xpm[] = {
"7 24 29 1",
" 	c None",
".	c #9A6A2C",
"+	c #FFDBAC",
"@	c #DE8F2A",
"#	c #AE742B",
"$	c #FFCA87",
"%	c #FFC985",
"&	c #FFC882",
"*	c #FFC780",
"=	c #FFCE8F",
"-	c #FFC67E",
";	c #FFC57C",
">	c #FFC47A",
",	c #FFC378",
"'	c #FFC275",
")	c #FFC273",
"!	c #FFBE6A",
"~	c #FEBD69",
"{	c #FEBC67",
"]	c #FDBB66",
"^	c #FDBA64",
"/	c #FCB963",
"(	c #FCB861",
"_	c #FCB760",
":	c #FBB65E",
"<	c #FBB55D",
"[	c #FAB45B",
"}	c #D88A26",
"|	c #736A60",
"..     ",
"++@#   ",
"$$++#  ",
"%%%%+# ",
"&&&&+@ ",
"*****=.",
"-----=.",
";;;;;=.",
">>>>>=.",
",,,,,=.",
"'''''=.",
")))))=.",
"!!!!!=.",
"~~~~~=.",
"{{{{{=.",
"]]]]]=.",
"^^^^^=.",
"/////=.",
"(((((=.",
"_____=.",
":::::=.",
"<<<<<=.",
"[[[[[=.",
"}}}}}}|"};
