/* XPM */
static char * top_left_inactive_xpm[] = {
"7 24 27 1",
" 	c None",
".	c #8F8173",
"+	c #ADA093",
"@	c #F9F7F5",
"#	c #EDE8E4",
"$	c #ECE7E2",
"%	c #EBE6E1",
"&	c #F5F2F0",
"*	c #EAE5E0",
"=	c #E9E4DF",
"-	c #E9E3DE",
";	c #E8E2DD",
">	c #E7E1DC",
",	c #E6E1DB",
"'	c #E6E0DA",
")	c #E1DAD3",
"!	c #E0D9D2",
"~	c #DFD8D1",
"{	c #DFD8D0",
"]	c #DED7CF",
"^	c #DDD6CE",
"/	c #DDD5CD",
"(	c #DCD4CC",
"_	c #DBD3CB",
":	c #DAD2CA",
"<	c #DAD2C9",
"[	c #A6998C",
"     ..",
"   .+@@",
"  .@@##",
" .@$$$$",
" +@%%%%",
".&*****",
".&=====",
".&-----",
".&;;;;;",
".&>>>>>",
".&,,,,,",
".&'''''",
".&)))))",
".&!!!!!",
".&~~~~~",
".&{{{{{",
".&]]]]]",
".&^^^^^",
".&/////",
".&(((((",
".&_____",
".&:::::",
".&<<<<<",
".[[[[[["};
