/* XPM */
static char * close_active_xpm[] = {
"20 24 66 1",
" 	c #666C5B",
".	c #D8DDCE",
"+	c #C6CCB8",
"@	c #B9C0A9",
"#	c #B6BDA5",
"$	c #C5CBB7",
"%	c #B7BFA7",
"&	c #A9B198",
"*	c #707662",
"=	c #A8AF96",
"-	c #BDC4AD",
";	c #B3BAA2",
">	c #C9CFBC",
",	c #B4BBA3",
"'	c #CBD0BD",
")	c #C8CEBA",
"!	c #B5BCA4",
"~	c #848C71",
"{	c #889075",
"]	c #AFB6A0",
"^	c #9EA58F",
"/	c #D8DCCF",
"(	c #B6BDA6",
"_	c #DADDD2",
":	c #E0E2DA",
"<	c #8E957C",
"[	c #AFB69F",
"}	c #EBEDE6",
"|	c #B7BEA7",
"1	c #C3CAB5",
"2	c #899177",
"3	c #EDEFE9",
"4	c #8D957C",
"5	c #8D957B",
"6	c #B8BFA8",
"7	c #C2C8B3",
"8	c #ADB49C",
"9	c #E1E3DB",
"0	c #E1E4DC",
"a	c #C0C7B1",
"b	c #ABB39B",
"c	c #BAC1AB",
"d	c #A6AE95",
"e	c #8D947B",
"f	c #BCC2AC",
"g	c #A5AC94",
"h	c #BDC3AD",
"i	c #BEC4AE",
"j	c #D7DBCF",
"k	c #A3AA91",
"l	c #EAECE6",
"m	c #BFC5B0",
"n	c #B1B8A0",
"o	c #A2A990",
"p	c #CDD2C2",
"q	c #C0C6B1",
"r	c #AFB79E",
"s	c #C1C8B2",
"t	c #AEB59C",
"u	c #BBC2AB",
"v	c #BEC5AF",
"w	c #9DA58A",
"x	c #ABB39A",
"y	c #B0B79F",
"z	c #C4CAB5",
"A	c #AFB69E",
"                    ",
"....................",
"++@##############@++",
"$%&**************&%$",
"%=*-............-*=%",
";*@>>>>>>>>>>>>>>=*;",
",*'))))))))))))))@*,",
"!*'+++~{]++]{^/++@*!",
"(*'$$~_:<[[<:}^$$@*(",
"|*'112:3:45:3:211@*|",
"6*'7785:3903:5877@*6",
"@*'aaab593305baaa@*@",
"c*'666de03395d666@*c",
"f*'((g5:3093:5g((@*f",
"h*'!!2:3:e5:3:2!!@*h",
"i*';;~j:5kk5:l^;;@*i",
"m*'nnn~{onno{^pnn@*m",
"q*'rrrrrrrrrrrrrr@*q",
"s*@tttttttttttttt=*s",
"uv*wxxxxxxxxxxxxw*vu",
"n@-**************-@n",
"yyvzzzzzzzzzzzzzzvyy",
"AAAAAAAAAAAAAAAAAAAA",
"~~~~~~~~~~~~~~~~~~~~"};
