/* XPM */
static char * close_prelight_xpm[] = {
"20 24 74 1",
" 	c #666C5B",
".	c #D8DDCE",
"+	c #C6CCB8",
"@	c #B9C0A9",
"#	c #B6BDA5",
"$	c #C5CBB7",
"%	c #B7BFA7",
"&	c #A9B198",
"*	c #707662",
"=	c #A8AF96",
"-	c #BDC4AD",
";	c #B3BAA2",
">	c #D4D9C9",
",	c #B9BFAB",
"'	c #B4BBA3",
")	c #CBD0BD",
"!	c #D3D8C8",
"~	c #C7CDBA",
"{	c #B5BCA4",
"]	c #D1D6C6",
"^	c #848C71",
"/	c #889075",
"(	c #B7BDA9",
"_	c #9EA58F",
":	c #DEE2D6",
"<	c #B6BDA6",
"[	c #D1D5C5",
"}	c #DBDED4",
"|	c #E0E2DA",
"1	c #8E957C",
"2	c #B7BCA8",
"3	c #EBEDE6",
"4	c #B7BEA7",
"5	c #CFD5C4",
"6	c #899177",
"7	c #EDEFE9",
"8	c #8D957B",
"9	c #B8BFA8",
"0	c #CED3C2",
"a	c #B5BBA6",
"b	c #E1E3DB",
"c	c #E1E4DC",
"d	c #CDD2C1",
"e	c #B4BAA6",
"f	c #BAC1AB",
"g	c #C6CCB9",
"h	c #AFB6A0",
"i	c #BCC2AC",
"j	c #C5CAB8",
"k	c #AFB5A0",
"l	c #BDC3AD",
"m	c #C4C9B6",
"n	c #BEC4AE",
"o	c #C2C8B5",
"p	c #D9DCD2",
"q	c #8D957C",
"r	c #ADB49E",
"s	c #EAEDE6",
"t	c #BFC5B0",
"u	c #C1C6B3",
"v	c #ACB29C",
"w	c #D6D9CC",
"x	c #C0C6B1",
"y	c #BFC5B1",
"z	c #C1C8B2",
"A	c #BEC4B0",
"B	c #BBC2AB",
"C	c #BEC5AF",
"D	c #B1B7A1",
"E	c #BCC2AE",
"F	c #B1B8A0",
"G	c #B0B79F",
"H	c #C4CAB5",
"I	c #AFB69E",
"                    ",
"....................",
"++@##############@++",
"$%&**************&%$",
"%=*-............-*=%",
";*@>>>>>>>>>>>>>>,*;",
"'*)!!!!!!!!!!!!!!~*'",
"{*)]]]^/(]](/_:]]~*{",
"<*)[[^}|1221|3_[[~*<",
"4*)556|7|18|7|655~*4",
"9*)00a1|7bc7|1a00~*9",
"@*)ddde1b77c8eddd~*@",
"f*)gggh8c77b1hggg~*f",
"i*)jjk1|7cb7|1kjj~*i",
"l*)mm6|7|81|7|6mm~*l",
"n*)oo^p|qrrq|s_oo~*n",
"t*)uuu^/vuuv/_wuu~*t",
"x*)yyyyyyyyyyyyyy~*x",
"z*@AAAAAAAAAAAAAA,*z",
"BC*DEEEEEEEEEEEED*CB",
"F@-**************-@F",
"GGCHHHHHHHHHHHHHHCGG",
"IIIIIIIIIIIIIIIIIIII",
"^^^^^^^^^^^^^^^^^^^^"};
