/* XPM */
static char * close_pressed_xpm[] = {
"20 24 73 1",
" 	c #666C5B",
".	c #D8DDCE",
"+	c #C6CCB8",
"@	c #C5CBB7",
"#	c #C4CAB6",
"$	c #A8AF96",
"%	c #DADFD0",
"&	c #C3C9B5",
"*	c #9FA78C",
"=	c #B0B79F",
"-	c #C2C9B3",
";	c #AFB79E",
">	c #D8DCCD",
",	c #C1C8B2",
"'	c #AFB69D",
")	c #848C71",
"!	c #889075",
"~	c #A0A88E",
"{	c #9EA58F",
"]	c #CCD0C0",
"^	c #D5DACA",
"/	c #C0C7B1",
"(	c #AEB69D",
"_	c #D6DACF",
":	c #E0E2DA",
"<	c #8D957B",
"[	c #EAECE6",
"}	c #D3D8C7",
"|	c #BFC6B0",
"1	c #ADB59C",
"2	c #899177",
"3	c #EDEFE9",
"4	c #8D947B",
"5	c #D0D5C4",
"6	c #BEC5AF",
"7	c #ADB49B",
"8	c #9FA68D",
"9	c #E1E3DB",
"0	c #E1E4DC",
"a	c #CED3C1",
"b	c #BDC4AD",
"c	c #ACB49B",
"d	c #9EA68D",
"e	c #CBD1BF",
"f	c #B8BFA8",
"g	c #ABB39A",
"h	c #9EA68C",
"i	c #C9CFBC",
"j	c #B8BFA7",
"k	c #ABB399",
"l	c #9EA68B",
"m	c #C6CCB9",
"n	c #B7BEA6",
"o	c #AAB299",
"p	c #B6BDA5",
"q	c #AAB198",
"r	c #D6D9CE",
"s	c #9DA48B",
"t	c #C1C8B3",
"u	c #B5BCA4",
"v	c #A9B197",
"w	c #9CA48A",
"x	c #C9CEBD",
"y	c #B4BBA3",
"z	c #A8B097",
"A	c #BDC3AD",
"B	c #B3BAA2",
"C	c #A8B096",
"D	c #BAC1AA",
"E	c #B2B9A1",
"F	c #B1B8A0",
"G	c #B9C0A9",
"H	c #AFB69E",
"                    ",
"....................",
"++++++++++++++++++++",
"@@@              @@@",
"## $$$$$$$$$$$$$$ %#",
"& *=============== %",
"- *;;;;;;;;;;;;;;; >",
", *''')!~''~!{]''' ^",
"/ *(()_:<~~<:[{((( }",
"| *112:3:<4:3:2111 5",
"6 *778<:3903:<8777 a",
"b *cccd<93304dcccc e",
"f *gggh40339<hgggg i",
"j *kkl<:3093:<lkkk m",
"n *oo2:3:4<:3:2ooo #",
"p *qq)r:4ss4:[{qqq t",
"u *vvv)!wvvw!{xvvv |",
"y *zzzzzzzzzzzzzzz A",
"B *CCCCCCCCCCCCCCC D",
"EE $$$$$$$$$$$$$$ DE",
"FFG              GFF",
"===GGGGGGGGGGGGGG===",
"HHHHHHHHHHHHHHHHHHHH",
"))))))))))))))))))))"};
