/* XPM */
static char * hide_prelight_xpm[] = {
"20 24 51 1",
" 	c #666C5B",
".	c #D8DDCE",
"+	c #C6CCB8",
"@	c #B9C0A9",
"#	c #B6BDA5",
"$	c #C5CBB7",
"%	c #B7BFA7",
"&	c #A9B198",
"*	c #707662",
"=	c #A8AF96",
"-	c #BDC4AD",
";	c #B3BAA2",
">	c #D4D9C9",
",	c #B9BFAB",
"'	c #B4BBA3",
")	c #CBD0BD",
"!	c #D3D8C8",
"~	c #C7CDBA",
"{	c #B5BCA4",
"]	c #D1D6C6",
"^	c #B6BDA6",
"/	c #D1D5C5",
"(	c #B7BEA7",
"_	c #CFD5C4",
":	c #B8BFA8",
"<	c #CED3C2",
"[	c #CDD2C1",
"}	c #BAC1AB",
"|	c #C6CCB9",
"1	c #BCC2AC",
"2	c #C5CAB8",
"3	c #848C71",
"4	c #BDC3AD",
"5	c #C4C9B6",
"6	c #EEF0EA",
"7	c #BEC4AE",
"8	c #C2C8B5",
"9	c #BFC5B0",
"0	c #C1C6B3",
"a	c #C0C6B1",
"b	c #BFC5B1",
"c	c #C1C8B2",
"d	c #BEC4B0",
"e	c #BBC2AB",
"f	c #BEC5AF",
"g	c #B1B7A1",
"h	c #BCC2AE",
"i	c #B1B8A0",
"j	c #B0B79F",
"k	c #C4CAB5",
"l	c #AFB69E",
"                    ",
"....................",
"++@##############@++",
"$%&**************&%$",
"%=*-............-*=%",
";*@>>>>>>>>>>>>>>,*;",
"'*)!!!!!!!!!!!!!!~*'",
"{*)]]]]]]]]]]]]]]~*{",
"^*)//////////////~*^",
"(*)______________~*(",
":*)<<<<<<<<<<<<<<~*:",
"@*)[[[[[[[[[[[[[[~*@",
"}*)||||||||||||||~*}",
"1*)22333333333322~*1",
"4*)55366666666355~*4",
"7*)88366666666388~*7",
"9*)00333333333300~*9",
"a*)bbbbbbbbbbbbbb~*a",
"c*@dddddddddddddd,*c",
"ef*ghhhhhhhhhhhhg*fe",
"i@-**************-@i",
"jjfkkkkkkkkkkkkkkfjj",
"llllllllllllllllllll",
"33333333333333333333"};
