/* XPM */
static char * maximize_active_xpm[] = {
"20 24 42 1",
" 	c #666C5B",
".	c #D8DDCE",
"+	c #C6CCB8",
"@	c #B9C0A9",
"#	c #B6BDA5",
"$	c #C5CBB7",
"%	c #B7BFA7",
"&	c #A9B198",
"*	c #707662",
"=	c #A8AF96",
"-	c #BDC4AD",
";	c #B3BAA2",
">	c #C9CFBC",
",	c #B4BBA3",
"'	c #CBD0BD",
")	c #C8CEBA",
"!	c #B5BCA4",
"~	c #848C71",
"{	c #B6BDA6",
"]	c #EEF0EA",
"^	c #B7BEA7",
"/	c #C3CAB5",
"(	c #B8BFA8",
"_	c #C2C8B3",
":	c #C0C7B1",
"<	c #BAC1AB",
"[	c #BCC2AC",
"}	c #BDC3AD",
"|	c #BEC4AE",
"1	c #BFC5B0",
"2	c #B1B8A0",
"3	c #C0C6B1",
"4	c #AFB79E",
"5	c #C1C8B2",
"6	c #AEB59C",
"7	c #BBC2AB",
"8	c #BEC5AF",
"9	c #9DA58A",
"0	c #ABB39A",
"a	c #B0B79F",
"b	c #C4CAB5",
"c	c #AFB69E",
"                    ",
"....................",
"++@##############@++",
"$%&**************&%$",
"%=*-............-*=%",
";*@>>>>>>>>>>>>>>=*;",
",*'))))))))))))))@*,",
"!*'++~~~~~~~~~~++@*!",
"{*'$$~]]]]]]]]~$$@*{",
"^*'//~]]]]]]]]~//@*^",
"(*'__~]~~~~~~]~__@*(",
"@*'::~]~::::~]~::@*@",
"<*'((~]~((((~]~((@*<",
"[*'{{~]~{{{{~]~{{@*[",
"}*'!!~]~~~~~~]~!!@*}",
"|*';;~]]]]]]]]~;;@*|",
"1*'22~~~~~~~~~~22@*1",
"3*'44444444444444@*3",
"5*@66666666666666=*5",
"78*90000000000009*87",
"2@-**************-@2",
"aa8bbbbbbbbbbbbbb8aa",
"cccccccccccccccccccc",
"~~~~~~~~~~~~~~~~~~~~"};
