/* XPM */
static char * maximize_prelight_xpm[] = {
"20 24 51 1",
" 	c #666C5B",
".	c #D8DDCE",
"+	c #C6CCB8",
"@	c #B9C0A9",
"#	c #B6BDA5",
"$	c #C5CBB7",
"%	c #B7BFA7",
"&	c #A9B198",
"*	c #707662",
"=	c #A8AF96",
"-	c #BDC4AD",
";	c #B3BAA2",
">	c #D4D9C9",
",	c #B9BFAB",
"'	c #B4BBA3",
")	c #CBD0BD",
"!	c #D3D8C8",
"~	c #C7CDBA",
"{	c #B5BCA4",
"]	c #D1D6C6",
"^	c #848C71",
"/	c #B6BDA6",
"(	c #D1D5C5",
"_	c #EEF0EA",
":	c #B7BEA7",
"<	c #CFD5C4",
"[	c #B8BFA8",
"}	c #CED3C2",
"|	c #CDD2C1",
"1	c #BAC1AB",
"2	c #C6CCB9",
"3	c #BCC2AC",
"4	c #C5CAB8",
"5	c #BDC3AD",
"6	c #C4C9B6",
"7	c #BEC4AE",
"8	c #C2C8B5",
"9	c #BFC5B0",
"0	c #C1C6B3",
"a	c #C0C6B1",
"b	c #BFC5B1",
"c	c #C1C8B2",
"d	c #BEC4B0",
"e	c #BBC2AB",
"f	c #BEC5AF",
"g	c #B1B7A1",
"h	c #BCC2AE",
"i	c #B1B8A0",
"j	c #B0B79F",
"k	c #C4CAB5",
"l	c #AFB69E",
"                    ",
"....................",
"++@##############@++",
"$%&**************&%$",
"%=*-............-*=%",
";*@>>>>>>>>>>>>>>,*;",
"'*)!!!!!!!!!!!!!!~*'",
"{*)]]^^^^^^^^^^]]~*{",
"/*)((^________^((~*/",
":*)<<^________^<<~*:",
"[*)}}^_^^^^^^_^}}~*[",
"@*)||^_^||||^_^||~*@",
"1*)22^_^2222^_^22~*1",
"3*)44^_^4444^_^44~*3",
"5*)66^_^^^^^^_^66~*5",
"7*)88^________^88~*7",
"9*)00^^^^^^^^^^00~*9",
"a*)bbbbbbbbbbbbbb~*a",
"c*@dddddddddddddd,*c",
"ef*ghhhhhhhhhhhhg*fe",
"i@-**************-@i",
"jjfkkkkkkkkkkkkkkfjj",
"llllllllllllllllllll",
"^^^^^^^^^^^^^^^^^^^^"};
