/* XPM */
static char * close_pressed_xpm[] = {
"20 24 72 1",
" 	c #9A6A2C",
".	c #FFDBAC",
"+	c #FFCA87",
"@	c #FFC985",
"#	c #FFC882",
"$	c #F6AD50",
"%	c #FFDDB1",
"&	c #FFC780",
"*	c #F0A444",
"=	c #FBB55D",
"-	c #FFC67E",
";	c #FAB55C",
">	c #FFDAAC",
",	c #FFC57C",
"'	c #FAB45B",
")	c #D88A26",
"!	c #D98E2C",
"~	c #EEA549",
"{	c #E2A353",
"]	c #FCCF96",
"^	c #FFD8A6",
"/	c #FFC47A",
"(	c #FAB35A",
"_	c #F9D9B0",
":	c #FAE2C4",
"<	c #DB9236",
"[	c #EEA548",
"}	c #FEECD4",
"|	c #FFD6A1",
"1	c #FFC378",
"2	c #F9B359",
"3	c #DA8F2E",
"4	c #FFEFDA",
"5	c #DB9235",
"6	c #FFD49C",
"7	c #FFC275",
"8	c #F9B258",
"9	c #EEA447",
"0	c #FAE3C6",
"a	c #FBE3C5",
"b	c #FFD197",
"c	c #FFC273",
"d	c #F8B257",
"e	c #EDA446",
"f	c #FFCF92",
"g	c #FFBE6A",
"h	c #F8B156",
"i	c #FFCD8D",
"j	c #FEBD69",
"k	c #F8B055",
"l	c #EDA345",
"m	c #FEBC67",
"n	c #F7B054",
"o	c #FDBB66",
"p	c #F7AF53",
"q	c #F8D8AF",
"r	c #ECA244",
"s	c #FFC67D",
"t	c #FDBA64",
"u	c #F7AE52",
"v	c #ECA243",
"w	c #FBCC91",
"x	c #FFC478",
"y	c #FCB963",
"z	c #F6AE51",
"A	c #FFC173",
"B	c #FCB861",
"C	c #FFBF6E",
"D	c #FCB760",
"E	c #FFBF6D",
"F	c #FBB65E",
"G	c #FFBE6B",
"                    ",
"....................",
"++++++++++++++++++++",
"@@@              @@@",
"## $$$$$$$$$$$$$$ %#",
"& *=============== %",
"- *;;;;;;;;;;;;;;; >",
", *''')!~''~!{]''' ^",
"/ *(()_:<[[<:}{((( |",
"1 *223:4:<5:4:3222 6",
"7 *889<:40a4:<9888 b",
"c *ddde<044a5edddd f",
"g *hhhe5a440<ehhhh i",
"j *kkl<:4a04:<lkkk +",
"m *nn3:4:5<:4:3nnn #",
"o *pp)q:<rr<:}{ppp s",
"t *uuu)!vuuv!{wuuu x",
"y *zzzzzzzzzzzzzzz A",
"B *$$$$$$$$$$$$$$$ C",
"DD $$$$$$$$$$$$$$ ED",
"FFG              GFF",
"===GGGGGGGGGGGGGG===",
"''''''''''''''''''''",
"))))))))))))))))))))"};
