/* XPM */
static char * maximize_prelight_xpm[] = {
"20 24 52 1",
" 	c #9A6A2C",
".	c #FFDBAC",
"+	c #FFCA87",
"@	c #FFBE6B",
"#	c #FEBB65",
"$	c #FFC985",
"%	c #FFBD68",
"&	c #F7AF52",
"*	c #AE742B",
"=	c #F6AD50",
"-	c #FFC172",
";	c #FCB861",
">	c #FFD7A5",
",	c #F8BD73",
"'	c #FCB963",
")	c #FFCE8F",
"!	c #FFD6A1",
"~	c #FFCB89",
"{	c #FCBA65",
"]	c #FFD59F",
"^	c #D88A26",
"/	c #FDBB67",
"(	c #FFD49D",
"_	c #FFEFDA",
":	c #FDBC69",
"<	c #FFD29A",
"[	c #FDBD6B",
"}	c #FFD197",
"|	c #FDBE6D",
"1	c #FFD195",
"2	c #FDBF6F",
"3	c #FFCA88",
"4	c #FEC072",
"5	c #FEC985",
"6	c #FEC174",
"7	c #FDC883",
"8	c #FEC276",
"9	c #FDC681",
"0	c #FEC378",
"a	c #FCC57F",
"b	c #FFC47A",
"c	c #FBC47D",
"d	c #FFC57C",
"e	c #FAC27A",
"f	c #FFC06F",
"g	c #FFC376",
"h	c #F2B567",
"i	c #F9C177",
"j	c #FBB65E",
"k	c #FBB55D",
"l	c #FFC881",
"m	c #FAB45B",
"                    ",
"....................",
"++@##############@++",
"$%&**************&%$",
"%=*-............-*=%",
";*@>>>>>>>>>>>>>>,*;",
"'*)!!!!!!!!!!!!!!~*'",
"{*)]]^^^^^^^^^^]]~*{",
"/*)((^________^((~*/",
":*)<<^________^<<~*:",
"[*)}}^_^^^^^^_^}}~*[",
"|*)11^_^1111^_^11~*|",
"2*)33^_^3333^_^33~*2",
"4*)55^_^5555^_^55~*4",
"6*)77^_^^^^^^_^77~*6",
"8*)99^________^99~*8",
"0*)aa^^^^^^^^^^aa~*0",
"b*)cccccccccccccc~*b",
"d*@eeeeeeeeeeeeee,*d",
"fg*hiiiiiiiiiiiih*gf",
"j@-**************-@j",
"kkgllllllllllllllgkk",
"mmmmmmmmmmmmmmmmmmmm",
"^^^^^^^^^^^^^^^^^^^^"};
