/* XPM */
static char * maximize_toggled_pressed_xpm[] = {
"20 24 51 1",
" 	c #9A6A2C",
".	c #FFCA87",
"+	c #FFC985",
"@	c #FFC883",
"#	c #FFC881",
"$	c #F6AD50",
"%	c #FFDDB1",
"&	c #FFC77F",
"*	c #F0A444",
"=	c #FBB55D",
"-	c #FFC67D",
";	c #FAB55C",
">	c #FFDAAC",
",	c #FFC57B",
"'	c #FAB45B",
")	c #FFD8A6",
"!	c #FFC479",
"~	c #FAB35A",
"{	c #D88A26",
"]	c #FFD6A1",
"^	c #FFC377",
"/	c #F9B359",
"(	c #FFEFDA",
"_	c #FFD49C",
":	c #FFC275",
"<	c #F9B258",
"[	c #FFD197",
"}	c #FFC173",
"|	c #F8B257",
"1	c #FFCF92",
"2	c #FFBE6A",
"3	c #F8B156",
"4	c #FFCD8D",
"5	c #FEBD69",
"6	c #F8B055",
"7	c #FEBC67",
"8	c #F7B054",
"9	c #FFC882",
"0	c #FDBB66",
"a	c #F7AF53",
"b	c #FDBA64",
"c	c #F7AE52",
"d	c #FFC478",
"e	c #FCB963",
"f	c #F6AE51",
"g	c #FCB861",
"h	c #FFBF6E",
"i	c #FCB760",
"j	c #FFBF6D",
"k	c #FBB65E",
"l	c #FFBE6B",
"                    ",
"....................",
"++++++++++++++++++++",
"@@@              @@@",
"## $$$$$$$$$$$$$$ %#",
"& *=============== %",
"- *;;;;;;;;;;;;;;; >",
", *''''''''''''''' )",
"! *~~~{{{{{{{{~~~~ ]",
"^ *///{(((((({//// _",
": *<<<{(((((({<<<< [",
"} *|||{({{{{({|||| 1",
"2 *333{({33{({3333 4",
"5 *666{({{{{({6666 .",
"7 *888{(((((({8888 9",
"0 *aaa{{{{{{{{aaaa -",
"b *ccccccccccccccc d",
"e *fffffffffffffff }",
"g *$$$$$$$$$$$$$$$ h",
"ii $$$$$$$$$$$$$$ ji",
"kkl              lkk",
"===llllllllllllll===",
"''''''''''''''''''''",
"{{{{{{{{{{{{{{{{{{{{"};
