/* XPM */
static char * maximize_toggled_inactive_xpm[] = {
"20 24 51 1",
" 	c #8F8173",
".	c #F9F7F5",
"+	c #EDE8E4",
"@	c #E2DBD4",
"#	c #DED6CF",
"$	c #ECE7E2",
"%	c #E0D9D1",
"&	c #D6CDC4",
"*	c #9B8D7F",
"=	c #D4CAC1",
"-	c #F3F0ED",
";	c #FFFFFF",
">	c #DFD9D1",
",	c #EFEBE7",
"'	c #E6E0DA",
")	c #E0D9D2",
"!	c #FFFEFE",
"~	c #E1DAD3",
"{	c #FEFEFE",
"]	c #E1DBD4",
"^	c #FEFEFD",
"/	c #E2DBD5",
"(	c #FEFDFD",
"_	c #747271",
":	c #E2DCD5",
"<	c #FDFDFC",
"[	c #E3DDD6",
"}	c #FDFCFC",
"|	c #E3DDD7",
"1	c #F7F6F4",
"2	c #E4DED8",
"3	c #F6F3F1",
"4	c #E5DFD8",
"5	c #F4F1EE",
"6	c #E5DFD9",
"7	c #F2EEEB",
"8	c #F0ECE8",
"9	c #E6E0DB",
"0	c #EEEAE6",
"a	c #E7E1DC",
"b	c #ECE7E3",
"c	c #E3DCD5",
"d	c #DAD1C9",
"e	c #EAE4DF",
"f	c #DBD3CB",
"g	c #E4DDD7",
"h	c #DAD2CA",
"i	c #E5DED8",
"j	c #E8E2DC",
"k	c #DAD2C9",
"l	c #A6998C",
"                    ",
"....................",
"++@##############@++",
"$%&**************&%$",
"%=*-;;;;;;;;;;;;-*=%",
">*,;;;;;;;;;;;;;;'*>",
")*;!!!!!!!!!!!!!!.*)",
"~*;{{{{{{{{{{{{{{.*~",
"]*;^^^^^^^^^^^^^^.*]",
"/*;((((______((((.*/",
":*;<<<<______<<<<.*:",
"[*;}}}}_}}}}_}}}}.*[",
"|*;1111_1111_1111.*|",
"2*;3333_3333_3333.*2",
"4*;5555______5555.*4",
"6*;77777777777777.*6",
"'*;88888888888888.*'",
"9*;00000000000000.*9",
"a*,bbbbbbbbbbbbbb'*a",
"c'*deeeeeeeeeeeed*'c",
"f@g**************g@f",
"hhijjjjjjjjjjjjjjihh",
"kkkkkkkkkkkkkkkkkkkk",
"llllllllllllllllllll"};
