/* XPM */
static char * maximize_active_xpm[] = {
"20 24 48 1",
" 	c #9A6A2C",
".	c #FFDBAC",
"+	c #FFCA87",
"@	c #FFBE6B",
"#	c #FEBB65",
"$	c #FFC985",
"%	c #FFBD68",
"&	c #F7AF52",
"*	c #AE742B",
"=	c #F6AD50",
"-	c #FFC172",
";	c #FCB861",
">	c #FFCD8E",
",	c #FCB963",
"'	c #FFCE8F",
")	c #FFCC8A",
"!	c #FCBA65",
"~	c #D88A26",
"{	c #FDBB67",
"]	c #FFC984",
"^	c #FFEFDA",
"/	c #FDBC69",
"(	c #FFC781",
"_	c #FDBD6B",
":	c #FFC67D",
"<	c #FDBE6D",
"[	c #FFC57A",
"}	c #FDBF6F",
"|	c #FFBD6A",
"1	c #FEC072",
"2	c #FEBB67",
"3	c #FEC174",
"4	c #FDBA64",
"5	c #FEC276",
"6	c #FEC378",
"7	c #FBB65F",
"8	c #FFC47A",
"9	c #FAB55C",
"0	c #FFC57C",
"a	c #F9B359",
"b	c #FFC06F",
"c	c #FFC376",
"d	c #EFA341",
"e	c #F8B155",
"f	c #FBB65E",
"g	c #FBB55D",
"h	c #FFC881",
"i	c #FAB45B",
"                    ",
"....................",
"++@##############@++",
"$%&**************&%$",
"%=*-............-*=%",
";*@>>>>>>>>>>>>>>=*;",
",*'))))))))))))))@*,",
"!*'++~~~~~~~~~~++@*!",
"{*']]~^^^^^^^^~]]@*{",
"/*'((~^^^^^^^^~((@*/",
"_*'::~^~~~~~~^~::@*_",
"<*'[[~^~[[[[~^~[[@*<",
"}*'||~^~||||~^~||@*}",
"1*'22~^~2222~^~22@*1",
"3*'44~^~~~~~~^~44@*3",
"5*';;~^^^^^^^^~;;@*5",
"6*'77~~~~~~~~~~77@*6",
"8*'99999999999999@*8",
"0*@aaaaaaaaaaaaaa=*0",
"bc*deeeeeeeeeeeed*cb",
"f@-**************-@f",
"ggchhhhhhhhhhhhhhcgg",
"iiiiiiiiiiiiiiiiiiii",
"~~~~~~~~~~~~~~~~~~~~"};
