/* XPM */
static char * maximize_pressed_xpm[] = {
"20 24 52 1",
" 	c #9A6A2C",
".	c #FFDBAC",
"+	c #FFCA87",
"@	c #FFC985",
"#	c #FFC882",
"$	c #F6AD50",
"%	c #FFDDB1",
"&	c #FFC780",
"*	c #F0A444",
"=	c #FBB55D",
"-	c #FFC67E",
";	c #FAB55C",
">	c #FFDAAC",
",	c #FFC57C",
"'	c #FAB45B",
")	c #D88A26",
"!	c #FFD8A6",
"~	c #FFC47A",
"{	c #FAB35A",
"]	c #FFEFDA",
"^	c #FFD6A1",
"/	c #FFC378",
"(	c #F9B359",
"_	c #FFD49C",
":	c #FFC275",
"<	c #F9B258",
"[	c #FFD197",
"}	c #FFC273",
"|	c #F8B257",
"1	c #FFCF92",
"2	c #FFBE6A",
"3	c #F8B156",
"4	c #FFCD8D",
"5	c #FEBD69",
"6	c #F8B055",
"7	c #FEBC67",
"8	c #F7B054",
"9	c #FDBB66",
"0	c #F7AF53",
"a	c #FFC67D",
"b	c #FDBA64",
"c	c #F7AE52",
"d	c #FFC478",
"e	c #FCB963",
"f	c #F6AE51",
"g	c #FFC173",
"h	c #FCB861",
"i	c #FFBF6E",
"j	c #FCB760",
"k	c #FFBF6D",
"l	c #FBB65E",
"m	c #FFBE6B",
"                    ",
"....................",
"++++++++++++++++++++",
"@@@              @@@",
"## $$$$$$$$$$$$$$ %#",
"& *=============== %",
"- *;;;;;;;;;;;;;;; >",
", *''))))))))))''' !",
"~ *{{)]]]]]]]]){{{ ^",
"/ *(()]]]]]]]])((( _",
": *<<)]))))))])<<< [",
"} *||)])||||)])||| 1",
"2 *33)])3333)])333 4",
"5 *66)])6666)])666 +",
"7 *88)]))))))])888 #",
"9 *00)]]]]]]]])000 a",
"b *cc))))))))))ccc d",
"e *fffffffffffffff g",
"h *$$$$$$$$$$$$$$$ i",
"jj $$$$$$$$$$$$$$ kj",
"llm              mll",
"===mmmmmmmmmmmmmm===",
"''''''''''''''''''''",
"))))))))))))))))))))"};
