/* XPM */
static char * maximize_pressed_xpm[] = {
"20 24 53 1",
" 	c #666C5B",
".	c #D8DDCE",
"+	c #C6CCB8",
"@	c #C5CBB7",
"#	c #C4CAB6",
"$	c #A8AF96",
"%	c #DADFD0",
"&	c #C3C9B5",
"*	c #9FA78C",
"=	c #B0B79F",
"-	c #C2C9B3",
";	c #AFB79E",
">	c #D8DCCD",
",	c #C1C8B2",
"'	c #AFB69D",
")	c #848C71",
"!	c #D5DACA",
"~	c #C0C7B1",
"{	c #AEB69D",
"]	c #EEF0EA",
"^	c #D3D8C7",
"/	c #BFC6B0",
"(	c #ADB59C",
"_	c #D0D5C4",
":	c #BEC5AF",
"<	c #ADB49B",
"[	c #CED3C1",
"}	c #BDC4AD",
"|	c #ACB49B",
"1	c #CBD1BF",
"2	c #B8BFA8",
"3	c #ABB39A",
"4	c #C9CFBC",
"5	c #B8BFA7",
"6	c #ABB399",
"7	c #C6CCB9",
"8	c #B7BEA6",
"9	c #AAB299",
"0	c #B6BDA5",
"a	c #AAB198",
"b	c #C1C8B3",
"c	c #B5BCA4",
"d	c #A9B197",
"e	c #B4BBA3",
"f	c #A8B097",
"g	c #BDC3AD",
"h	c #B3BAA2",
"i	c #A8B096",
"j	c #BAC1AA",
"k	c #B2B9A1",
"l	c #B1B8A0",
"m	c #B9C0A9",
"n	c #AFB69E",
"                    ",
"....................",
"++++++++++++++++++++",
"@@@              @@@",
"## $$$$$$$$$$$$$$ %#",
"& *=============== %",
"- *;;;;;;;;;;;;;;; >",
", *''))))))))))''' !",
"~ *{{)]]]]]]]]){{{ ^",
"/ *(()]]]]]]]])((( _",
": *<<)]))))))])<<< [",
"} *||)])||||)])||| 1",
"2 *33)])3333)])333 4",
"5 *66)])6666)])666 7",
"8 *99)]))))))])999 #",
"0 *aa)]]]]]]]])aaa b",
"c *dd))))))))))ddd /",
"e *fffffffffffffff g",
"h *iiiiiiiiiiiiiii j",
"kk $$$$$$$$$$$$$$ jk",
"llm              mll",
"===mmmmmmmmmmmmmm===",
"nnnnnnnnnnnnnnnnnnnn",
"))))))))))))))))))))"};
