/* XPM */
static char * maximize_toggled_prelight_xpm[] = {
"20 24 52 1",
" 	c #666C5B",
".	c #C6CCB8",
"+	c #C5CCB7",
"@	c #B9C0A9",
"#	c #B6BDA5",
"$	c #C4CBB6",
"%	c #B7BFA7",
"&	c #A9B198",
"*	c #707662",
"=	c #A8AF96",
"-	c #BDC4AD",
";	c #D8DDCE",
">	c #B3BAA2",
",	c #D4D9C9",
"'	c #B9BFAB",
")	c #B4BBA3",
"!	c #CBD0BD",
"~	c #D3D8C8",
"{	c #C7CDBA",
"]	c #B5BCA4",
"^	c #D1D6C6",
"/	c #B6BDA6",
"(	c #D1D5C5",
"_	c #848C71",
":	c #B7BEA7",
"<	c #CFD5C4",
"[	c #EEF0EA",
"}	c #B8BFA8",
"|	c #CED3C2",
"1	c #CDD2C1",
"2	c #BAC1AB",
"3	c #C6CCB9",
"4	c #BCC2AC",
"5	c #C5CAB8",
"6	c #BDC3AD",
"7	c #C4C9B6",
"8	c #BEC4AE",
"9	c #C2C8B5",
"0	c #BFC5B0",
"a	c #C1C6B3",
"b	c #C0C6B1",
"c	c #BFC5B1",
"d	c #C1C8B2",
"e	c #BEC4B0",
"f	c #BBC2AB",
"g	c #BEC5AF",
"h	c #B1B7A1",
"i	c #BCC2AE",
"j	c #B1B8A0",
"k	c #B0B79F",
"l	c #C4CAB5",
"m	c #AFB69E",
"                    ",
"....................",
"++@##############@++",
"$%&**************&%$",
"%=*-;;;;;;;;;;;;-*=%",
">*@,,,,,,,,,,,,,,'*>",
")*!~~~~~~~~~~~~~~{*)",
"]*!^^^^^^^^^^^^^^{*]",
"/*!(((________((({*/",
":*!<<<_[[[[[[_<<<{*:",
"}*!|||_[[[[[[_|||{*}",
"@*!111_[____[_111{*@",
"2*!333_[_33_[_333{*2",
"4*!555_[____[_555{*4",
"6*!777_[[[[[[_777{*6",
"8*!999________999{*8",
"0*!aaaaaaaaaaaaaa{*0",
"b*!cccccccccccccc{*b",
"d*@eeeeeeeeeeeeee'*d",
"fg*hiiiiiiiiiiiih*gf",
"j@-**************-@j",
"kkgllllllllllllllgkk",
"mmmmmmmmmmmmmmmmmmmm",
"____________________"};
