/* XPM */
static char * maximize_toggled_active_xpm[] = {
"20 24 44 1",
" 	c #666C5B",
".	c #C6CCB8",
"+	c #C5CCB7",
"@	c #B9C0A9",
"#	c #B6BDA5",
"$	c #C4CBB6",
"%	c #B7BFA7",
"&	c #A9B198",
"*	c #707662",
"=	c #A8AF96",
"-	c #BDC4AD",
";	c #D8DDCE",
">	c #B3BAA2",
",	c #C9CFBC",
"'	c #B4BBA3",
")	c #CBD0BD",
"!	c #C8CEBA",
"~	c #B5BCA4",
"{	c #B6BDA6",
"]	c #C5CBB7",
"^	c #848C71",
"/	c #B7BEA7",
"(	c #C3CAB5",
"_	c #EEF0EA",
":	c #B8BFA8",
"<	c #C2C8B3",
"[	c #C0C7B1",
"}	c #BAC1AB",
"|	c #BCC2AC",
"1	c #BDC3AD",
"2	c #BEC4AE",
"3	c #BFC5B0",
"4	c #B1B8A0",
"5	c #C0C6B1",
"6	c #AFB79E",
"7	c #C1C8B2",
"8	c #AEB59C",
"9	c #BBC2AB",
"0	c #BEC5AF",
"a	c #9DA58A",
"b	c #ABB39A",
"c	c #B0B79F",
"d	c #C4CAB5",
"e	c #AFB69E",
"                    ",
"....................",
"++@##############@++",
"$%&**************&%$",
"%=*-;;;;;;;;;;;;-*=%",
">*@,,,,,,,,,,,,,,=*>",
"'*)!!!!!!!!!!!!!!@*'",
"~*)..............@*~",
"{*)]]]^^^^^^^^]]]@*{",
"/*)(((^______^(((@*/",
":*)<<<^______^<<<@*:",
"@*)[[[^_^^^^_^[[[@*@",
"}*):::^_^::^_^:::@*}",
"|*){{{^_^^^^_^{{{@*|",
"1*)~~~^______^~~~@*1",
"2*)>>>^^^^^^^^>>>@*2",
"3*)44444444444444@*3",
"5*)66666666666666@*5",
"7*@88888888888888=*7",
"90*abbbbbbbbbbbba*09",
"4@-**************-@4",
"cc0dddddddddddddd0cc",
"eeeeeeeeeeeeeeeeeeee",
"^^^^^^^^^^^^^^^^^^^^"};
